<?xml version="1.0" encoding="UTF-8" standalone="no"?>
<!DOCTYPE svg PUBLIC "-//W3C//DTD SVG 1.1//EN"
 "http://www.w3.org/Graphics/SVG/1.1/DTD/svg11.dtd">
<!-- Generated by graphviz version 2.38.0 (20140413.2041)
 -->
<!-- Title: %3 Pages: 1 -->
<svg width="977pt" height="479pt"
 viewBox="0.00 0.00 976.68 479.00" xmlns="http://www.w3.org/2000/svg" xmlns:xlink="http://www.w3.org/1999/xlink">
<g id="graph0" class="graph" transform="scale(1 1) rotate(0) translate(4 475)">
<title>%3</title>
<polygon fill="#3f3f3f" stroke="none" points="-4,4 -4,-475 972.682,-475 972.682,4 -4,4"/>
<text text-anchor="middle" x="484.341" y="-9.2" font-family="Times,serif" font-size="16.00" fill="white">Network Map</text>
<!-- R5 -->
<g id="node1" class="node"><title>R5</title>
<polygon fill="#006699" stroke="#006699" points="744.182,-99 667.182,-99 667.182,-26 744.182,-26 744.182,-99"/>
<text text-anchor="middle" x="705.682" y="-58.8" font-family="Helvetica,sans-Serif" font-size="14.00" fill="white">R5</text>
</g>
<!-- R2 -->
<g id="node4" class="node"><title>R2</title>
<polygon fill="#006699" stroke="#006699" points="558.182,-223 481.182,-223 481.182,-150 558.182,-150 558.182,-223"/>
<text text-anchor="middle" x="519.682" y="-182.8" font-family="Helvetica,sans-Serif" font-size="14.00" fill="white">R2</text>
</g>
<!-- R5&#45;&#45;R2 -->
<g id="edge8" class="edge"><title>R5&#45;&#45;R2</title>
<path fill="none" stroke="green" stroke-dasharray="5,2" d="M667.17,-69.1944C618.365,-77.2834 538.432,-93.7451 520.682,-117 513.682,-126.171 511.843,-138.226 512.259,-149.664"/>
<text text-anchor="middle" x="570.682" y="-120.8" font-family="Courier,monospace" font-size="14.00" fill="white"> &#160;&#160;&#160;&#160;&#160;&#160;&#160;&#160;&#160;&#160;&#160;</text>
<text text-anchor="middle" x="483.259" y="-138.464" font-family="Courier,monospace" font-size="14.00" fill="white">Eth 0/1</text>
<text text-anchor="middle" x="638.17" y="-57.9944" font-family="Courier,monospace" font-size="14.00" fill="white">Eth 0/0</text>
</g>
<!-- R4 -->
<g id="node6" class="node"><title>R4</title>
<polygon fill="#006699" stroke="#006699" points="745.182,-471 668.182,-471 668.182,-398 745.182,-398 745.182,-471"/>
<text text-anchor="middle" x="706.682" y="-430.8" font-family="Helvetica,sans-Serif" font-size="14.00" fill="white">R4</text>
</g>
<!-- R5&#45;&#45;R4 -->
<g id="edge9" class="edge"><title>R5&#45;&#45;R4</title>
<path fill="none" stroke="green" stroke-dasharray="5,2" d="M738.507,-99.02C742.238,-104.695 745.484,-110.763 747.682,-117 766.001,-168.982 750.348,-309.886 750.682,-365 750.722,-371.667 752.931,-373.724 750.682,-380 748.45,-386.226 745.147,-392.247 741.335,-397.863"/>
<text text-anchor="middle" x="805.682" y="-244.8" font-family="Courier,monospace" font-size="14.00" fill="white"> &#160;&#160;&#160;&#160;&#160;&#160;&#160;&#160;&#160;&#160;&#160;</text>
<text text-anchor="middle" x="712.335" y="-386.663" font-family="Courier,monospace" font-size="14.00" fill="white">Eth 0/1</text>
<text text-anchor="middle" x="709.507" y="-102.82" font-family="Courier,monospace" font-size="14.00" fill="white">Eth 0/1</text>
</g>
<!-- R3 -->
<g id="node2" class="node"><title>R3</title>
<polygon fill="#006699" stroke="#006699" points="135.182,-471 58.1817,-471 58.1817,-398 135.182,-398 135.182,-471"/>
<text text-anchor="middle" x="96.6817" y="-430.8" font-family="Helvetica,sans-Serif" font-size="14.00" fill="white">R3</text>
</g>
<!-- SW1 -->
<g id="node3" class="node"><title>SW1</title>
<polygon fill="#006699" stroke="#006699" points="383.682,-347 291.682,-347 291.682,-274 383.682,-274 383.682,-347"/>
<text text-anchor="middle" x="337.682" y="-306.8" font-family="Helvetica,sans-Serif" font-size="14.00" fill="white">SW1</text>
</g>
<!-- R3&#45;&#45;SW1 -->
<g id="edge5" class="edge"><title>R3&#45;&#45;SW1</title>
<path fill="none" stroke="green" stroke-dasharray="5,2" d="M129.672,-397.699C141.946,-385.995 156.583,-373.765 171.682,-365 209.26,-343.186 256.869,-329.017 291.455,-320.777"/>
<text text-anchor="middle" x="221.682" y="-368.8" font-family="Courier,monospace" font-size="14.00" fill="white"> &#160;&#160;&#160;&#160;&#160;&#160;&#160;&#160;&#160;&#160;&#160;</text>
<text text-anchor="middle" x="262.455" y="-309.577" font-family="Courier,monospace" font-size="14.00" fill="white">Eth 0/3</text>
<text text-anchor="middle" x="100.672" y="-386.499" font-family="Courier,monospace" font-size="14.00" fill="white">Eth 0/0</text>
</g>
<!-- SW1&#45;&#45;R3 -->
<g id="edge13" class="edge"><title>SW1&#45;&#45;R3</title>
<path fill="none" stroke="green" stroke-dasharray="5,2" d="M291.621,-313.09C217.804,-316.714 78.1835,-328.357 47.6817,-365 37.1113,-377.699 45.4197,-392.534 58,-405.144"/>
<text text-anchor="middle" x="97.6817" y="-368.8" font-family="Courier,monospace" font-size="14.00" fill="white"> &#160;&#160;&#160;&#160;&#160;&#160;&#160;&#160;&#160;&#160;&#160;</text>
<text text-anchor="middle" x="29" y="-393.944" font-family="Courier,monospace" font-size="14.00" fill="white">Eth 0/0</text>
<text text-anchor="middle" x="262.621" y="-316.89" font-family="Courier,monospace" font-size="14.00" fill="white">Eth 0/3</text>
</g>
<!-- SW1&#45;&#45;R2 -->
<g id="edge12" class="edge"><title>SW1&#45;&#45;R2</title>
<path fill="none" stroke="green" stroke-dasharray="5,2" d="M372.05,-273.849C383.977,-262.553 397.843,-250.536 411.682,-241 433.305,-226.099 459.683,-212.951 480.957,-203.417"/>
<text text-anchor="middle" x="461.682" y="-244.8" font-family="Courier,monospace" font-size="14.00" fill="white"> &#160;&#160;&#160;&#160;&#160;&#160;&#160;&#160;&#160;&#160;&#160;</text>
<text text-anchor="middle" x="451.957" y="-192.217" font-family="Courier,monospace" font-size="14.00" fill="white">Eth 0/0</text>
<text text-anchor="middle" x="343.05" y="-262.649" font-family="Courier,monospace" font-size="14.00" fill="white">Eth 0/2</text>
</g>
<!-- R1 -->
<g id="node5" class="node"><title>R1</title>
<polygon fill="#006699" stroke="#006699" points="380.182,-471 303.182,-471 303.182,-398 380.182,-398 380.182,-471"/>
<text text-anchor="middle" x="341.682" y="-430.8" font-family="Helvetica,sans-Serif" font-size="14.00" fill="white">R1</text>
</g>
<!-- SW1&#45;&#45;R1 -->
<g id="edge11" class="edge"><title>SW1&#45;&#45;R1</title>
<path fill="none" stroke="green" stroke-dasharray="5,2" d="M291.615,-339.849C279.152,-351.278 270.786,-365.248 277.682,-380 283.262,-391.939 292.962,-402.15 303.148,-410.353"/>
<text text-anchor="middle" x="327.682" y="-368.8" font-family="Courier,monospace" font-size="14.00" fill="white"> &#160;&#160;&#160;&#160;&#160;&#160;&#160;&#160;&#160;&#160;&#160;</text>
<text text-anchor="middle" x="274.148" y="-399.153" font-family="Courier,monospace" font-size="14.00" fill="white">Eth 0/0</text>
<text text-anchor="middle" x="262.615" y="-343.649" font-family="Courier,monospace" font-size="14.00" fill="white">Eth 0/1</text>
</g>
<!-- SW1&#45;&#45;R4 -->
<g id="edge14" class="edge"><title>SW1&#45;&#45;R4</title>
<path fill="none" stroke="green" stroke-dasharray="5,2" d="M383.866,-327.273C413.644,-337.615 453.123,-351.648 487.682,-365 503.85,-371.247 507.338,-374.226 523.682,-380 572.838,-397.367 630.777,-413.615 668.085,-423.547"/>
<text text-anchor="middle" x="573.682" y="-368.8" font-family="Courier,monospace" font-size="14.00" fill="white"> &#160;&#160;&#160;&#160;&#160;&#160;&#160;&#160;&#160;&#160;&#160;</text>
<text text-anchor="middle" x="639.085" y="-412.347" font-family="Courier,monospace" font-size="14.00" fill="white">Eth 0/0</text>
<text text-anchor="middle" x="412.866" y="-316.073" font-family="Courier,monospace" font-size="14.00" fill="white">Eth 0/4</text>
</g>
<!-- R2&#45;&#45;R5 -->
<g id="edge3" class="edge"><title>R2&#45;&#45;R5</title>
<path fill="none" stroke="green" stroke-dasharray="5,2" d="M558.286,-168.463C578.666,-158.824 603.724,-145.93 624.682,-132 639.253,-122.315 654.164,-110.385 667.156,-99.21"/>
<text text-anchor="middle" x="693.682" y="-120.8" font-family="Courier,monospace" font-size="14.00" fill="white"> &#160;&#160;&#160;&#160;&#160;&#160;&#160;&#160;&#160;&#160;&#160;</text>
<text text-anchor="middle" x="638.156" y="-88.01" font-family="Courier,monospace" font-size="14.00" fill="white">Eth 0/0</text>
<text text-anchor="middle" x="587.286" y="-157.263" font-family="Courier,monospace" font-size="14.00" fill="white">Eth 0/1</text>
</g>
<!-- R2&#45;&#45;SW1 -->
<g id="edge2" class="edge"><title>R2&#45;&#45;SW1</title>
<path fill="none" stroke="green" stroke-dasharray="5,2" d="M481.039,-190.151C418.447,-195.338 299.29,-209.223 273.682,-241 261.631,-255.953 274.287,-271.675 291.434,-284.28"/>
<text text-anchor="middle" x="323.682" y="-244.8" font-family="Courier,monospace" font-size="14.00" fill="white"> &#160;&#160;&#160;&#160;&#160;&#160;&#160;&#160;&#160;&#160;&#160;</text>
<text text-anchor="middle" x="262.434" y="-273.08" font-family="Courier,monospace" font-size="14.00" fill="white">Eth 0/2</text>
<text text-anchor="middle" x="452.039" y="-178.951" font-family="Courier,monospace" font-size="14.00" fill="white">Eth 0/0</text>
</g>
<!-- R6 -->
<g id="node7" class="node"><title>R6</title>
<polygon fill="#006699" stroke="#006699" points="618.182,-347 541.182,-347 541.182,-274 618.182,-274 618.182,-347"/>
<text text-anchor="middle" x="579.682" y="-306.8" font-family="Helvetica,sans-Serif" font-size="14.00" fill="white">R6</text>
</g>
<!-- R2&#45;&#45;R6 -->
<g id="edge4" class="edge"><title>R2&#45;&#45;R6</title>
<path fill="none" stroke="green" stroke-dasharray="5,2" d="M514.181,-223.173C513.922,-234.107 515.159,-245.907 519.682,-256 524.419,-266.571 532.391,-275.911 541.003,-283.707"/>
<text text-anchor="middle" x="569.682" y="-244.8" font-family="Courier,monospace" font-size="14.00" fill="white"> &#160;&#160;&#160;&#160;&#160;&#160;&#160;&#160;&#160;&#160;&#160;</text>
<text text-anchor="middle" x="512.003" y="-272.507" font-family="Courier,monospace" font-size="14.00" fill="white">Eth 0/1</text>
<text text-anchor="middle" x="485.181" y="-226.973" font-family="Courier,monospace" font-size="14.00" fill="white">Eth 0/2</text>
</g>
<!-- R1&#45;&#45;SW1 -->
<g id="edge1" class="edge"><title>R1&#45;&#45;SW1</title>
<path fill="none" stroke="green" stroke-dasharray="5,2" d="M376.458,-397.747C382.474,-387.538 385.678,-376.149 381.682,-365 379.45,-358.774 376.147,-352.753 372.335,-347.137"/>
<text text-anchor="middle" x="433.682" y="-368.8" font-family="Courier,monospace" font-size="14.00" fill="white"> &#160;&#160;&#160;&#160;&#160;&#160;&#160;&#160;&#160;&#160;&#160;</text>
<text text-anchor="middle" x="343.335" y="-350.937" font-family="Courier,monospace" font-size="14.00" fill="white">Eth 0/1</text>
<text text-anchor="middle" x="347.458" y="-386.547" font-family="Courier,monospace" font-size="14.00" fill="white">Eth 0/0</text>
</g>
<!-- R4&#45;&#45;R5 -->
<g id="edge7" class="edge"><title>R4&#45;&#45;R5</title>
<path fill="none" stroke="green" stroke-dasharray="5,2" d="M745.261,-413.141C799.549,-381.426 889.375,-316.021 865.682,-241 845.407,-176.803 825.792,-165.093 778.682,-117 768.456,-106.561 756.026,-96.6461 744.343,-88.252"/>
<text text-anchor="middle" x="918.682" y="-244.8" font-family="Courier,monospace" font-size="14.00" fill="white"> &#160;&#160;&#160;&#160;&#160;&#160;&#160;&#160;&#160;&#160;&#160;</text>
<text text-anchor="middle" x="773.343" y="-77.052" font-family="Courier,monospace" font-size="14.00" fill="white">Eth 0/1</text>
<text text-anchor="middle" x="774.261" y="-401.941" font-family="Courier,monospace" font-size="14.00" fill="white">Eth 0/1</text>
</g>
<!-- R4&#45;&#45;SW1 -->
<g id="edge6" class="edge"><title>R4&#45;&#45;SW1</title>
<path fill="none" stroke="green" stroke-dasharray="5,2" d="M669.334,-397.794C653.692,-383.56 637.006,-369.486 627.682,-365 626.303,-364.337 465.131,-334.805 383.689,-319.909"/>
<text text-anchor="middle" x="698.682" y="-368.8" font-family="Courier,monospace" font-size="14.00" fill="white"> &#160;&#160;&#160;&#160;&#160;&#160;&#160;&#160;&#160;&#160;&#160;</text>
<text text-anchor="middle" x="412.689" y="-308.709" font-family="Courier,monospace" font-size="14.00" fill="white">Eth 0/4</text>
<text text-anchor="middle" x="640.334" y="-386.594" font-family="Courier,monospace" font-size="14.00" fill="white">Eth 0/0</text>
</g>
<!-- R6&#45;&#45;R2 -->
<g id="edge10" class="edge"><title>R6&#45;&#45;R2</title>
<path fill="none" stroke="green" stroke-dasharray="5,2" d="M616.361,-273.858C622.999,-263.255 626.052,-251.632 619.682,-241 606.375,-218.789 580.353,-205.28 558.19,-197.394"/>
<text text-anchor="middle" x="673.682" y="-244.8" font-family="Courier,monospace" font-size="14.00" fill="white"> &#160;&#160;&#160;&#160;&#160;&#160;&#160;&#160;&#160;&#160;&#160;</text>
<text text-anchor="middle" x="587.19" y="-186.194" font-family="Courier,monospace" font-size="14.00" fill="white">Eth 0/2</text>
<text text-anchor="middle" x="587.361" y="-262.658" font-family="Courier,monospace" font-size="14.00" fill="white">Eth 0/1</text>
</g>
</g>
</svg>
